STARTFONT 2.1
COMMENT Copyright (C) 2022 by Andrew G. Crowell. Creative Commons Attribution 4.0 International License (CC BY 4.0).
COMMENT om_thin_hvshadow_outline.bdf
FONT -eggboycolor-omelette_thin_hvshadow_outline-medium-r-normal--8-100-72-72-m-90-ISO8859-1
SIZE 8 72 72
FONTBOUNDINGBOX 8 8 0 -2
STARTPROPERTIES 13
FONT_ASCENT 6 
FONT_DESCENT 2
PIXEL_SIZE 8
POINT_SIZE 100
RESOLUTION_X 72
RESOLUTION_Y 72
SPACING "C"
DEFAULT_CHAR 32
AVERAGE_WIDTH 90
CHARSET_REGISTRY "ISO8859"
CHARSET_ENCODING "1"
FOUNDRY "eggboycolor"
COPYRIGHT "Copyright (C) 2022 by Andrew G. Crowell. Creative Commons Attribution 4.0 International License (CC BY 4.0)."
ENDPROPERTIES
CHARS 96
STARTCHAR char32
ENCODING 32
SWIDTH 800 0
DWIDTH 8 0
BBX 8 8 0 -2
BITMAP
00
00
00
00
00
00
00
00
ENDCHAR
STARTCHAR char33
ENCODING 33
SWIDTH 800 0
DWIDTH 8 0
BBX 8 8 0 -2
BITMAP
00
04
0C
18
30
10
30
00
ENDCHAR
STARTCHAR char34
ENCODING 34
SWIDTH 800 0
DWIDTH 8 0
BBX 8 8 0 -2
BITMAP
00
12
56
3C
00
00
00
00
ENDCHAR
STARTCHAR char35
ENCODING 35
SWIDTH 800 0
DWIDTH 8 0
BBX 8 8 0 -2
BITMAP
00
14
02
56
02
56
3C
00
ENDCHAR
STARTCHAR char36
ENCODING 36
SWIDTH 800 0
DWIDTH 8 0
BBX 8 8 0 -2
BITMAP
00
02
2E
44
2A
06
6C
18
ENDCHAR
STARTCHAR char37
ENCODING 37
SWIDTH 800 0
DWIDTH 8 0
BBX 8 8 0 -2
BITMAP
00
53
16
6C
11
35
61
4F
ENDCHAR
STARTCHAR char38
ENCODING 38
SWIDTH 800 0
DWIDTH 8 0
BBX 8 8 0 -2
BITMAP
00
28
5A
26
74
0A
7E
00
ENDCHAR
STARTCHAR char39
ENCODING 39
SWIDTH 800 0
DWIDTH 8 0
BBX 8 8 0 -2
BITMAP
00
28
18
30
00
00
00
00
ENDCHAR
STARTCHAR char40
ENCODING 40
SWIDTH 800 0
DWIDTH 8 0
BBX 8 8 0 -2
BITMAP
00
0C
18
10
28
14
0C
00
ENDCHAR
STARTCHAR char41
ENCODING 41
SWIDTH 800 0
DWIDTH 8 0
BBX 8 8 0 -2
BITMAP
00
28
14
04
0C
18
30
00
ENDCHAR
STARTCHAR char42
ENCODING 42
SWIDTH 800 0
DWIDTH 8 0
BBX 8 8 0 -2
BITMAP
00
2A
46
2A
6E
18
00
00
ENDCHAR
STARTCHAR char43
ENCODING 43
SWIDTH 800 0
DWIDTH 8 0
BBX 8 8 0 -2
BITMAP
00
08
08
02
6E
08
18
00
ENDCHAR
STARTCHAR char44
ENCODING 44
SWIDTH 800 0
DWIDTH 8 0
BBX 8 8 0 -2
BITMAP
00
00
00
00
00
08
18
30
ENDCHAR
STARTCHAR char45
ENCODING 45
SWIDTH 800 0
DWIDTH 8 0
BBX 8 8 0 -2
BITMAP
00
00
00
02
7E
00
00
00
ENDCHAR
STARTCHAR char46
ENCODING 46
SWIDTH 800 0
DWIDTH 8 0
BBX 8 8 0 -2
BITMAP
00
00
00
00
00
10
30
00
ENDCHAR
STARTCHAR char47
ENCODING 47
SWIDTH 800 0
DWIDTH 8 0
BBX 8 8 0 -2
BITMAP
00
06
0C
18
30
60
40
00
ENDCHAR
STARTCHAR char48
ENCODING 48
SWIDTH 800 0
DWIDTH 8 0
BBX 8 8 0 -2
BITMAP
00
1A
12
0A
1A
26
1C
00
ENDCHAR
STARTCHAR char49
ENCODING 49
SWIDTH 800 0
DWIDTH 8 0
BBX 8 8 0 -2
BITMAP
00
08
28
08
08
04
3C
00
ENDCHAR
STARTCHAR char50
ENCODING 50
SWIDTH 800 0
DWIDTH 8 0
BBX 8 8 0 -2
BITMAP
00
3A
66
0C
18
02
7E
00
ENDCHAR
STARTCHAR char51
ENCODING 51
SWIDTH 800 0
DWIDTH 8 0
BBX 8 8 0 -2
BITMAP
00
3A
66
1A
22
46
3C
00
ENDCHAR
STARTCHAR char52
ENCODING 52
SWIDTH 800 0
DWIDTH 8 0
BBX 8 8 0 -2
BITMAP
00
24
24
02
76
04
0C
00
ENDCHAR
STARTCHAR char53
ENCODING 53
SWIDTH 800 0
DWIDTH 8 0
BBX 8 8 0 -2
BITMAP
00
3E
04
7A
02
06
7C
00
ENDCHAR
STARTCHAR char54
ENCODING 54
SWIDTH 800 0
DWIDTH 8 0
BBX 8 8 0 -2
BITMAP
00
1C
04
3A
22
46
3C
00
ENDCHAR
STARTCHAR char55
ENCODING 55
SWIDTH 800 0
DWIDTH 8 0
BBX 8 8 0 -2
BITMAP
00
7A
06
0C
08
08
18
00
ENDCHAR
STARTCHAR char56
ENCODING 56
SWIDTH 800 0
DWIDTH 8 0
BBX 8 8 0 -2
BITMAP
00
3A
46
3A
22
46
3C
00
ENDCHAR
STARTCHAR char57
ENCODING 57
SWIDTH 800 0
DWIDTH 8 0
BBX 8 8 0 -2
BITMAP
00
3A
22
42
36
0C
38
00
ENDCHAR
STARTCHAR char58
ENCODING 58
SWIDTH 800 0
DWIDTH 8 0
BBX 8 8 0 -2
BITMAP
00
08
18
00
08
18
00
00
ENDCHAR
STARTCHAR char59
ENCODING 59
SWIDTH 800 0
DWIDTH 8 0
BBX 8 8 0 -2
BITMAP
00
08
18
00
08
18
30
00
ENDCHAR
STARTCHAR char60
ENCODING 60
SWIDTH 800 0
DWIDTH 8 0
BBX 8 8 0 -2
BITMAP
00
01
07
1C
64
19
07
00
ENDCHAR
STARTCHAR char61
ENCODING 61
SWIDTH 800 0
DWIDTH 8 0
BBX 8 8 0 -2
BITMAP
00
00
02
7E
02
7E
00
00
ENDCHAR
STARTCHAR char62
ENCODING 62
SWIDTH 800 0
DWIDTH 8 0
BBX 8 8 0 -2
BITMAP
00
10
64
19
07
1C
70
00
ENDCHAR
STARTCHAR char63
ENCODING 63
SWIDTH 800 0
DWIDTH 8 0
BBX 8 8 0 -2
BITMAP
00
3A
66
0C
18
08
18
00
ENDCHAR
STARTCHAR char64
ENCODING 64
SWIDTH 800 0
DWIDTH 8 0
BBX 8 8 0 -2
BITMAP
00
3A
2A
26
3C
42
3E
00
ENDCHAR
STARTCHAR char65
ENCODING 65
SWIDTH 800 0
DWIDTH 8 0
BBX 8 8 0 -2
BITMAP
00
3A
22
02
3A
22
66
00
ENDCHAR
STARTCHAR char66
ENCODING 66
SWIDTH 800 0
DWIDTH 8 0
BBX 8 8 0 -2
BITMAP
00
3A
06
3A
22
06
7C
00
ENDCHAR
STARTCHAR char67
ENCODING 67
SWIDTH 800 0
DWIDTH 8 0
BBX 8 8 0 -2
BITMAP
00
3D
23
20
21
43
3E
00
ENDCHAR
STARTCHAR char68
ENCODING 68
SWIDTH 800 0
DWIDTH 8 0
BBX 8 8 0 -2
BITMAP
00
34
2A
22
26
0C
78
00
ENDCHAR
STARTCHAR char69
ENCODING 69
SWIDTH 800 0
DWIDTH 8 0
BBX 8 8 0 -2
BITMAP
00
3E
02
3E
20
02
7E
00
ENDCHAR
STARTCHAR char70
ENCODING 70
SWIDTH 800 0
DWIDTH 8 0
BBX 8 8 0 -2
BITMAP
00
3E
02
3E
20
20
60
00
ENDCHAR
STARTCHAR char71
ENCODING 71
SWIDTH 800 0
DWIDTH 8 0
BBX 8 8 0 -2
BITMAP
00
3A
26
22
3A
46
3C
00
ENDCHAR
STARTCHAR char72
ENCODING 72
SWIDTH 800 0
DWIDTH 8 0
BBX 8 8 0 -2
BITMAP
00
22
02
3A
22
22
66
00
ENDCHAR
STARTCHAR char73
ENCODING 73
SWIDTH 800 0
DWIDTH 8 0
BBX 8 8 0 -2
BITMAP
00
2C
08
08
08
04
3C
00
ENDCHAR
STARTCHAR char74
ENCODING 74
SWIDTH 800 0
DWIDTH 8 0
BBX 8 8 0 -2
BITMAP
00
1A
02
02
22
46
3C
00
ENDCHAR
STARTCHAR char75
ENCODING 75
SWIDTH 800 0
DWIDTH 8 0
BBX 8 8 0 -2
BITMAP
00
26
0C
34
2A
22
66
00
ENDCHAR
STARTCHAR char76
ENCODING 76
SWIDTH 800 0
DWIDTH 8 0
BBX 8 8 0 -2
BITMAP
00
20
20
20
20
02
7E
00
ENDCHAR
STARTCHAR char77
ENCODING 77
SWIDTH 800 0
DWIDTH 8 0
BBX 8 8 0 -2
BITMAP
00
12
2A
2A
3A
22
66
00
ENDCHAR
STARTCHAR char78
ENCODING 78
SWIDTH 800 0
DWIDTH 8 0
BBX 8 8 0 -2
BITMAP
00
12
2A
32
2A
22
66
00
ENDCHAR
STARTCHAR char79
ENCODING 79
SWIDTH 800 0
DWIDTH 8 0
BBX 8 8 0 -2
BITMAP
00
3A
22
22
22
46
3C
00
ENDCHAR
STARTCHAR char80
ENCODING 80
SWIDTH 800 0
DWIDTH 8 0
BBX 8 8 0 -2
BITMAP
00
3A
22
06
3C
20
60
00
ENDCHAR
STARTCHAR char81
ENCODING 81
SWIDTH 800 0
DWIDTH 8 0
BBX 8 8 0 -2
BITMAP
00
3A
22
2A
36
4A
3E
00
ENDCHAR
STARTCHAR char82
ENCODING 82
SWIDTH 800 0
DWIDTH 8 0
BBX 8 8 0 -2
BITMAP
00
3A
22
06
3A
22
66
00
ENDCHAR
STARTCHAR char83
ENCODING 83
SWIDTH 800 0
DWIDTH 8 0
BBX 8 8 0 -2
BITMAP
00
3E
44
3A
02
06
7C
00
ENDCHAR
STARTCHAR char84
ENCODING 84
SWIDTH 800 0
DWIDTH 8 0
BBX 8 8 0 -2
BITMAP
00
6E
08
08
08
08
18
00
ENDCHAR
STARTCHAR char85
ENCODING 85
SWIDTH 800 0
DWIDTH 8 0
BBX 8 8 0 -2
BITMAP
00
22
22
22
22
46
3C
00
ENDCHAR
STARTCHAR char86
ENCODING 86
SWIDTH 800 0
DWIDTH 8 0
BBX 8 8 0 -2
BITMAP
00
22
22
22
56
2C
18
00
ENDCHAR
STARTCHAR char87
ENCODING 87
SWIDTH 800 0
DWIDTH 8 0
BBX 8 8 0 -2
BITMAP
00
22
22
2A
12
3A
66
00
ENDCHAR
STARTCHAR char88
ENCODING 88
SWIDTH 800 0
DWIDTH 8 0
BBX 8 8 0 -2
BITMAP
00
56
2C
14
3A
22
66
00
ENDCHAR
STARTCHAR char89
ENCODING 89
SWIDTH 800 0
DWIDTH 8 0
BBX 8 8 0 -2
BITMAP
00
22
56
2C
08
08
18
00
ENDCHAR
STARTCHAR char90
ENCODING 90
SWIDTH 800 0
DWIDTH 8 0
BBX 8 8 0 -2
BITMAP
00
76
0C
18
30
02
7E
00
ENDCHAR
STARTCHAR char91
ENCODING 91
SWIDTH 800 0
DWIDTH 8 0
BBX 8 8 0 -2
BITMAP
00
0C
08
08
08
04
1C
00
ENDCHAR
STARTCHAR char92
ENCODING 92
SWIDTH 800 0
DWIDTH 8 0
BBX 8 8 0 -2
BITMAP
00
10
48
24
12
09
07
00
ENDCHAR
STARTCHAR char93
ENCODING 93
SWIDTH 800 0
DWIDTH 8 0
BBX 8 8 0 -2
BITMAP
00
14
04
04
04
04
1C
00
ENDCHAR
STARTCHAR char94
ENCODING 94
SWIDTH 800 0
DWIDTH 8 0
BBX 8 8 0 -2
BITMAP
00
04
12
3A
66
00
00
00
ENDCHAR
STARTCHAR char95
ENCODING 95
SWIDTH 800 0
DWIDTH 8 0
BBX 8 8 0 -2
BITMAP
00
00
00
00
00
02
7E
00
ENDCHAR
STARTCHAR char96
ENCODING 96
SWIDTH 800 0
DWIDTH 8 0
BBX 8 8 0 -2
BITMAP
00
28
18
00
00
00
00
00
ENDCHAR
STARTCHAR char97
ENCODING 97
SWIDTH 800 0
DWIDTH 8 0
BBX 8 8 0 -2
BITMAP
00
04
3A
22
22
4A
3E
00
ENDCHAR
STARTCHAR char98
ENCODING 98
SWIDTH 800 0
DWIDTH 8 0
BBX 8 8 0 -2
BITMAP
00
20
04
3A
22
06
7C
00
ENDCHAR
STARTCHAR char99
ENCODING 99
SWIDTH 800 0
DWIDTH 8 0
BBX 8 8 0 -2
BITMAP
00
04
3A
26
22
46
3C
00
ENDCHAR
STARTCHAR char100
ENCODING 100
SWIDTH 800 0
DWIDTH 8 0
BBX 8 8 0 -2
BITMAP
00
02
02
3A
22
42
3E
00
ENDCHAR
STARTCHAR char101
ENCODING 101
SWIDTH 800 0
DWIDTH 8 0
BBX 8 8 0 -2
BITMAP
00
04
3A
02
3E
42
3E
00
ENDCHAR
STARTCHAR char102
ENCODING 102
SWIDTH 800 0
DWIDTH 8 0
BBX 8 8 0 -2
BITMAP
00
1E
04
5C
10
10
30
00
ENDCHAR
STARTCHAR char103
ENCODING 103
SWIDTH 800 0
DWIDTH 8 0
BBX 8 8 0 -2
BITMAP
00
02
3A
22
42
3A
06
7C
ENDCHAR
STARTCHAR char104
ENCODING 104
SWIDTH 800 0
DWIDTH 8 0
BBX 8 8 0 -2
BITMAP
00
20
04
3A
22
22
66
00
ENDCHAR
STARTCHAR char105
ENCODING 105
SWIDTH 800 0
DWIDTH 8 0
BBX 8 8 0 -2
BITMAP
00
18
08
08
08
08
18
00
ENDCHAR
STARTCHAR char106
ENCODING 106
SWIDTH 800 0
DWIDTH 8 0
BBX 8 8 0 -2
BITMAP
00
0C
04
04
04
24
4C
38
ENDCHAR
STARTCHAR char107
ENCODING 107
SWIDTH 800 0
DWIDTH 8 0
BBX 8 8 0 -2
BITMAP
00
20
24
0C
34
2A
66
00
ENDCHAR
STARTCHAR char108
ENCODING 108
SWIDTH 800 0
DWIDTH 8 0
BBX 8 8 0 -2
BITMAP
00
50
10
10
10
08
38
00
ENDCHAR
STARTCHAR char109
ENCODING 109
SWIDTH 800 0
DWIDTH 8 0
BBX 8 8 0 -2
BITMAP
00
14
2A
2A
2A
3A
66
00
ENDCHAR
STARTCHAR char110
ENCODING 110
SWIDTH 800 0
DWIDTH 8 0
BBX 8 8 0 -2
BITMAP
00
04
3A
22
22
22
66
00
ENDCHAR
STARTCHAR char111
ENCODING 111
SWIDTH 800 0
DWIDTH 8 0
BBX 8 8 0 -2
BITMAP
00
04
3A
22
22
46
3C
00
ENDCHAR
STARTCHAR char112
ENCODING 112
SWIDTH 800 0
DWIDTH 8 0
BBX 8 8 0 -2
BITMAP
00
04
3A
22
06
3C
20
60
ENDCHAR
STARTCHAR char113
ENCODING 113
SWIDTH 800 0
DWIDTH 8 0
BBX 8 8 0 -2
BITMAP
00
02
3A
22
42
3A
02
06
ENDCHAR
STARTCHAR char114
ENCODING 114
SWIDTH 800 0
DWIDTH 8 0
BBX 8 8 0 -2
BITMAP
00
24
1A
36
20
20
60
00
ENDCHAR
STARTCHAR char115
ENCODING 115
SWIDTH 800 0
DWIDTH 8 0
BBX 8 8 0 -2
BITMAP
00
02
3E
44
3A
06
7C
00
ENDCHAR
STARTCHAR char116
ENCODING 116
SWIDTH 800 0
DWIDTH 8 0
BBX 8 8 0 -2
BITMAP
00
08
02
6E
08
12
0E
00
ENDCHAR
STARTCHAR char117
ENCODING 117
SWIDTH 800 0
DWIDTH 8 0
BBX 8 8 0 -2
BITMAP
00
22
22
22
22
46
3C
00
ENDCHAR
STARTCHAR char118
ENCODING 118
SWIDTH 800 0
DWIDTH 8 0
BBX 8 8 0 -2
BITMAP
00
22
22
22
56
2C
18
00
ENDCHAR
STARTCHAR char119
ENCODING 119
SWIDTH 800 0
DWIDTH 8 0
BBX 8 8 0 -2
BITMAP
00
22
22
2A
2A
56
3C
00
ENDCHAR
STARTCHAR char120
ENCODING 120
SWIDTH 800 0
DWIDTH 8 0
BBX 8 8 0 -2
BITMAP
00
22
56
2C
14
3A
66
00
ENDCHAR
STARTCHAR char121
ENCODING 121
SWIDTH 800 0
DWIDTH 8 0
BBX 8 8 0 -2
BITMAP
00
22
22
22
42
3A
06
7C
ENDCHAR
STARTCHAR char122
ENCODING 122
SWIDTH 800 0
DWIDTH 8 0
BBX 8 8 0 -2
BITMAP
00
02
76
0C
18
02
7E
00
ENDCHAR
STARTCHAR char123
ENCODING 123
SWIDTH 800 0
DWIDTH 8 0
BBX 8 8 0 -2
BITMAP
00
0C
18
50
28
04
1C
00
ENDCHAR
STARTCHAR char124
ENCODING 124
SWIDTH 800 0
DWIDTH 8 0
BBX 8 8 0 -2
BITMAP
00
10
10
10
10
10
30
00
ENDCHAR
STARTCHAR char125
ENCODING 125
SWIDTH 800 0
DWIDTH 8 0
BBX 8 8 0 -2
BITMAP
00
14
09
03
06
04
1C
00
ENDCHAR
STARTCHAR char126
ENCODING 126
SWIDTH 800 0
DWIDTH 8 0
BBX 8 8 0 -2
BITMAP
00
00
09
33
6E
00
00
00
ENDCHAR
STARTCHAR char127
ENCODING 127
SWIDTH 800 0
DWIDTH 8 0
BBX 8 8 0 -2
BITMAP
00
00
00
00
00
2A
7E
00
ENDCHAR
ENDFONT
